<svg xmlns="http://www.w3.org/2000/svg" viewBox="0 0 32 32">
  <g fill="#132112" fill-rule="evenodd">
    <path d="M16 0c-4.3453 0-4.8902.0184-6.5968.0963C7.7002.174 6.5372.4445 5.5193.84c-1.0521.4089-1.9444.956-2.8339 1.8455S1.2488 4.4673.84 5.5194C.4444 6.537.174 7.7002.0962 9.4032.0184 11.1098 0 11.6547 0 16s.0184 4.8902.0962 6.5968c.0778 1.703.3482 2.866.7437 3.8838.409 1.0521.956 1.9444 1.8455 2.834.8895.8895 1.7818 1.4366 2.834 1.8455 1.0177.3954 2.1808.666 3.8838.7436C11.1098 31.9816 11.6547 32 16 32s4.8902-.0184 6.5968-.0963c1.703-.0777 2.866-.3482 3.8838-.7436 1.0521-.409 1.9444-.956 2.834-1.8455.8895-.8896 1.4366-1.7819 1.8455-2.834.3954-1.0177.666-2.1808.7436-3.8838C31.9816 20.8902 32 20.3453 32 16s-.0184-4.8902-.0963-6.5968c-.0777-1.703-.3482-2.866-.7436-3.8838-.409-1.0521-.956-1.9444-1.8455-2.834C28.425 1.796 27.5327 1.249 26.4806.84 25.463.4445 24.2998.174 22.5968.0963 20.8902.0184 20.3453 0 16 0Zm0 2.883c4.2722 0 4.7782.0162 6.4654.0932 1.56.0712 2.4071.3318 2.971.5509.7468.2902 1.2798.637 1.8396 1.1969.56.5598.9067 1.0929 1.197 1.8397.219.5638.4797 1.411.5508 2.971.077 1.687.0933 2.1931.0933 6.4653s-.0163 4.7782-.0933 6.4654c-.0711 1.56-.3318 2.4071-.5509 2.971-.2902.7468-.637 1.2798-1.1969 1.8396-.5598.56-1.0928.9067-1.8397 1.197-.5638.219-1.411.4797-2.971.5508-1.6868.077-2.1928.0933-6.4653.0933s-4.7784-.0163-6.4654-.0933c-1.56-.0711-2.4071-.3318-2.971-.5509-.7468-.2902-1.2798-.637-1.8397-1.1969-.5599-.5598-.9066-1.0928-1.1968-1.8397-.2191-.5638-.4798-1.411-.551-2.971-.077-1.687-.0932-2.1931-.0932-6.4653s.0162-4.7782.0932-6.4654c.0712-1.56.3319-2.4071.551-2.971.2902-.7467.637-1.2798 1.1968-1.8396.56-.5599 1.093-.9067 1.8398-1.197.5638-.219 1.411-.4796 2.971-.5508 1.687-.077 2.1931-.0933 6.4653-.0933Z"/>
    <path d="M16 21.3333c-2.9455 0-5.3333-2.3878-5.3333-5.3333 0-2.9455 2.3878-5.3333 5.3333-5.3333 2.9455 0 5.3333 2.3878 5.3333 5.3333 0 2.9455-2.3878 5.3333-5.3333 5.3333Zm0-13.5495c-4.5377 0-8.2162 3.6785-8.2162 8.2162 0 4.5377 3.6785 8.2162 8.2162 8.2162 4.5377 0 8.2162-3.6785 8.2162-8.2162 0-4.5377-3.6785-8.2162-8.2162-8.2162Zm10.4609-.3246c0 1.0604-.8597 1.92-1.92 1.92-1.0604 0-1.92-.8596-1.92-1.92s.8596-1.92 1.92-1.92c1.0603 0 1.92.8596 1.92 1.92Z" fill-rule="nonzero"/>
  </g>
</svg>
