<svg xmlns="http://www.w3.org/2000/svg" viewBox="0 0 344 62">
  <path d="m15.7872 31.9254-4.9763 10.9208-8.418 18.4744c-.1946.427-.6298.6806-1.0848.678C1.2879 62 1.2676 62 1.247 62 .5589 62 0 61.461 0 60.7973V1.2033C0 .5393.5588.0004 1.2472.0004h.0364c.4642-.0129.9126.2413 1.1117.676l12.6532 27.6312.0033.0067c.1849.3929.7345.6619 1.2106.6619.0176 0 .035.0003.0522.001h7.191V1.2032c0-.6639.559-1.2028 1.2472-1.2028.6884 0 1.2472.539 1.2472 1.2027v59.594C26 61.461 25.4412 62 24.7528 62c-.6882 0-1.2471-.539-1.2471-1.2027v-29.552h-6.7429a1.809 1.809 0 0 1-.0384.0004c-.4799 0-.7516.2753-.9343.6732l-.003.0065ZM2.4943 6.5069v31.1655h4.0994a3.7547 3.7547 0 0 1 .062-.0005c.4841 0 .9003-.2828 1.0805-.6864.0169-.0377.055-.1228.1043-.228l3.9813-8.7374a4.4426 4.4426 0 0 1 .0617-.1354 1.5219 1.5219 0 0 0 .0111-.0244c.055-.1262.0791-.2666.0791-.4117 0-.162-.0353-.3162-.0989-.4556a10.4868 10.4868 0 0 1-.0447-.0991L2.4943 6.5069Zm3.6398 33.4336H2.4943v15.52L8.013 43.349c.006-.014.0121-.0276.0182-.041a1.0944 1.0944 0 0 0 .0981-.4539c0-.162-.0353-.316-.0988-.4555a4.748 4.748 0 0 1-.0266-.0594l-.7775-1.687a2.4134 2.4134 0 0 0-.0262-.057c-.1874-.3866-.5944-.6548-1.066-.6548ZM46.4311 1.367c0-.6433-.5672-1.2062-1.2155-1.2062S44 .7238 44 1.3671v59.1854c0 .6433.5673 1.2063 1.2156 1.2063s1.2155-.563 1.2155-1.2063V31.201h7.9424l13.128 29.9144c.1621.4021.5673.6434 1.0535.6434.7294 0 1.2953-.4825 1.2953-1.0454 0-.1609 0-.3217-.0797-.563L56.3994 29.834 69.04 1.93c.162-.2413.2445-.563.2445-.8042 0-.5629-.5673-.965-1.2156-.965-.4876 0-.8928.1609-1.0548.7238L54.2924 28.9494h-7.8613V1.3671Zm45.6248 59.266c0 .5628.5673 1.1258 1.2156 1.1258.6469 0 1.2155-.563 1.2155-1.1259V31.8444c0-10.2128-2.7566-14.153-10.2107-14.153-3.8912 0-6.7275 1.1257-8.7534 2.8949-.3228.3216-.4849.6433-.4849 1.0453 0 .4825.3242.965.89.965.3256 0 .6497-.1608.8928-.3216 1.864-1.6887 4.295-2.332 7.211-2.332 6.483 0 8.024 3.6186 8.024 12.1426v5.9507h-5.836c-8.2658 0-12.3973 4.3424-12.3973 11.9819 0 7.3177 2.6728 11.9818 9.399 11.9818 4.0518 0 7.3757-1.6887 8.8344-5.7899v4.4228Zm0-9.489c-.3255 6.7548-4.7826 8.7652-8.59 8.7652-5.1864 0-7.2934-3.4578-7.2934-9.891 0-6.1116 2.754-9.9715 10.2108-9.9715h5.6726V51.144ZM108.8306 62c.9725 0 2.026-.1608 2.9984-.563.4052-.1607.728-.5628.728-1.0453 0-.563-.4052-.965-.9724-.965-.3228 0-1.1332.4825-2.4312.4825-2.1866 0-3.2415-.965-3.2415-5.1466V1.2866c0-.5629-.5659-1.1258-1.2155-1.1258-.566 0-1.1332.563-1.1332 1.1258V55.004c0 6.0311 2.026 6.9961 5.2674 6.9961Zm8.8318-53.7977c0 .6434.5672 1.2867 1.2155 1.2867.7307 0 1.298-.6433 1.298-1.2867v-6.192c0-.6432-.5673-1.2866-1.298-1.2866-.6483 0-1.2155.6434-1.2155 1.2867v6.192Zm.0824 52.4306c0 .563.5672 1.1259 1.1331 1.1259.6497 0 1.2156-.563 1.2156-1.1259V19.0584c0-.6434-.566-1.2063-1.2156-1.2063-.5659 0-1.1331.563-1.1331 1.2063v41.5745Zm11.7504.0001c0 .5628.5673 1.1258 1.1332 1.1258.6496 0 1.2155-.563 1.2155-1.1259V31.6031c0-7.4786 3.0808-11.7406 8.024-11.7406 5.1041 0 7.3731 2.4929 7.3731 9.5694v31.201c0 .563.4876 1.1259 1.136 1.1259.6469 0 1.2155-.563 1.2155-1.1259V29.2711c0-8.2024-2.9174-11.5798-9.1572-11.5798-3.9722 0-7.0503 2.1712-8.5914 6.2724v-4.9053c0-.6434-.5659-1.2063-1.2155-1.2063-.566 0-1.1332.563-1.1332 1.2063v41.5745Zm32.5771-59.266c0-.6433-.5673-1.2062-1.2156-1.2062-.6497 0-1.2156.563-1.2156 1.2063v59.1854c0 .6433.566 1.2063 1.2156 1.2063.6483 0 1.2156-.563 1.2156-1.2063V31.201h7.9416l13.128 29.9144c.1608.4021.566.6434 1.0536.6434.728 0 1.2952-.4825 1.2952-1.0454 0-.1609 0-.3217-.0797-.563L172.04 29.834 184.6804 1.93c.1634-.2413.243-.563.243-.8042 0-.5629-.5658-.965-1.2155-.965-.4849 0-.89.1609-1.0535.7238l-12.7229 28.0648h-7.8592V1.3671Zm42.3825 57.2556c0 .5629.4052.965 1.0522 1.2866C208.6674 61.6783 211.6672 62 213.9349 62c9.5637 0 14.264-6.1115 14.264-16.8872 0-10.293-4.2154-13.6705-10.6173-15.6005l-2.4312-.8041c-5.1864-1.528-8.5089-4.4229-8.5089-12.7056 0-6.594 2.1894-13.751 11.5087-13.751 1.7814 0 3.8884.3217 5.9144 1.367.6496.3217 1.1345.6434 1.7031 1.0455.728.2412 1.4573-.2413 1.4573-.965 0-.4825-.2417-.7237-.647-1.0454C223.9039.5629 220.5814 0 218.0692 0c-9.4017 0-13.9398 6.594-13.9398 16.1634 0 9.5694 4.5381 12.9468 10.6983 14.8768l2.4312.8042c5.3484 1.5278 8.59 4.664 8.59 13.3489 0 8.6848-3.1605 14.555-11.995 14.555-3.2415 0-5.1053-.804-6.5626-1.5278-.4863-.2413-.9738-.4825-1.46-.6433-.8104-.1609-1.3764.402-1.3764 1.0454ZM245.0533 62c1.46 0 2.5945-.1608 3.567-.402.4848-.161.89-.4826.89-1.1259 0-.5629-.4052-1.0454-1.0521-1.0454-.5686 0-1.298.402-3.1605.402-3.6467 0-5.3484-1.2865-5.3484-7.7198V20.4254h7.2933c.5673 0 1.1332-.402 1.1332-1.0454 0-.5629-.566-1.0454-1.1332-1.0454h-7.2933V6.192c0-.6434-.4876-1.2867-1.2156-1.2867-.6483 0-1.1345.6433-1.1345 1.2867v12.1426h-4.7016c-.5659 0-1.1345.4825-1.1345 1.0454 0 .6433.5686 1.0454 1.1345 1.0454h4.7016v31.764c0 7.3177 2.2677 9.8106 7.454 9.8106Zm11.9949-42.9416c0-.6434-.5687-1.2063-1.2156-1.2063-.5686 0-1.1345.563-1.1345 1.2063v31.2814c0 8.524 2.5108 11.6602 8.752 11.6602 4.133 0 7.2934-2.1712 8.9952-6.4332v5.0661c0 .563.4862 1.1259 1.1345 1.1259.647 0 1.2156-.563 1.2156-1.1259V19.0584c0-.6434-.5687-1.2063-1.2156-1.2063-.6483 0-1.1345.563-1.1345 1.2063v29.3515c0 7.4786-3.405 11.4189-8.428 11.4189-4.9432 0-6.9691-2.4929-6.9691-9.5694v-31.201Zm44.1654 41.5746c0 .5628.4862 1.1258 1.1345 1.1258.647 0 1.2156-.563 1.2156-1.1259V1.2866c0-.5629-.5687-1.1258-1.2156-1.1258-.6483 0-1.1345.563-1.1345 1.1258v21.873c-1.379-3.7796-3.8101-5.4683-7.943-5.4683-6.8072 0-9.7245 4.0208-9.7245 14.7964v14.6355c0 10.7756 2.6755 14.8768 9.4827 14.8768 4.0519 0 6.7247-1.93 8.1848-6.3528v4.9857Zm0-16.1635c0 10.856-2.4312 15.3593-7.862 15.3593-5.3485 0-7.4541-3.1362-7.4541-12.5448V32.2464c0-9.3281 2.1056-12.4643 7.454-12.4643 5.2675 0 7.862 3.699 7.862 14.153v10.5344ZM312.883 8.2023c0 .6434.5672 1.2867 1.2155 1.2867.728 0 1.2966-.6433 1.2966-1.2867v-6.192c0-.6432-.5686-1.2866-1.2966-1.2866-.6483 0-1.2155.6434-1.2155 1.2867v6.192Zm.081 52.4306c0 .563.566 1.1259 1.1345 1.1259.647 0 1.2156-.563 1.2156-1.1259V19.0584c0-.6434-.5686-1.2063-1.2156-1.2063-.5686 0-1.1345.563-1.1345 1.2063v41.5745Zm11.1008-13.5901c0 10.9364 2.9173 14.9572 10.05 14.9572C341.246 62 344 57.9792 344 47.0428V32.6485c0-11.0169-2.6729-14.9572-9.8852-14.9572-7.0503 0-10.05 3.9403-10.05 14.9572v14.3943Zm2.3514-14.6355c0-9.3282 2.1867-12.6252 7.6986-12.6252 5.4281 0 7.5365 3.2166 7.5365 12.6252V47.284c0 9.4086-2.1084 12.6252-7.5365 12.6252-5.512 0-7.6986-3.297-7.6986-12.6252V32.4073Z" fill="#302C03" fill-rule="evenodd"/>
</svg>
