<svg xmlns="http://www.w3.org/2000/svg" xml:space="preserve" style="fill-rule:evenodd;clip-rule:evenodd;stroke-linejoin:round;stroke-miterlimit:2" viewBox="0 0 4601 1000"><path d="M463.907 0h1205.75v811H463.907z" style="fill:none" transform="matrix(3.81507 0 0 1.23305 -1768.875 0)"/><path d="m266.913 512.025-62.395 141.972-105.55 240.17c-2.44 5.55-7.895 8.847-13.6 8.813-.254.012-.508.018-.765.018-8.63 0-15.637-7.006-15.637-15.635V112.635c0-8.63 7.006-15.636 15.637-15.636.153 0 .305.003.457.007 5.82-.174 11.443 3.13 13.939 8.782L257.65 464.995l.04.088c2.319 5.107 9.21 8.604 15.18 8.604.22 0 .439.005.655.013h90.164V112.635c0-8.63 7.008-15.636 15.638-15.636 8.63 0 15.637 7.007 15.637 15.636v774.728c0 8.629-7.006 15.635-15.637 15.635-8.63 0-15.638-7.006-15.638-15.635V503.184h-84.545c-.162.004-.322.006-.481.006-6.017 0-9.424 3.579-11.715 8.751l-.036.084ZM100.24 181.584v405.154h51.4c.26-.005.52-.007.776-.007 6.07 0 11.29-3.677 13.55-8.923.21-.49.687-1.596 1.306-2.964l49.92-113.587c.24-.575.5-1.164.773-1.76.048-.105.094-.212.14-.318.69-1.64.992-3.466.992-5.352a14.7 14.7 0 0 0-1.24-5.923c-.196-.445-.384-.875-.56-1.288L100.24 181.584Zm45.637 434.639H100.24v201.76l69.194-157.447c.076-.182.152-.36.228-.534a14.671 14.671 0 0 0 1.23-5.9c0-2.106-.442-4.11-1.24-5.922a62.885 62.885 0 0 1-.332-.772l-9.748-21.93a15.102 15.102 0 0 1-.105-.237 31.935 31.935 0 0 0-.224-.504c-2.35-5.028-7.453-8.514-13.366-8.514Z"/><path d="M944.525-41.226c0-4.8-4.2-9-9-9s-9 4.2-9 9v441.6c0 4.8 4.2 9 9 9s9-4.2 9-9v-219h58.805l97.2 223.2c1.2 3 4.2 4.8 7.8 4.8 5.4 0 9.59-3.6 9.59-7.8 0-1.2 0-2.4-.59-4.2l-99-226.2 93.59-208.2c1.2-1.8 1.81-4.2 1.81-6 0-4.2-4.2-7.2-9-7.2-3.61 0-6.61 1.2-7.81 5.4l-94.19 209.4h-58.205v-205.8Zm337.805 442.2c0 4.2 4.2 8.4 9 8.4 4.79 0 9-4.2 9-8.4v-214.8c0-76.2-20.41-105.6-75.6-105.6-28.81 0-49.81 8.4-64.81 21.6-2.39 2.4-3.59 4.8-3.59 7.8 0 3.6 2.4 7.2 6.59 7.2 2.41 0 4.81-1.2 6.61-2.4 13.8-12.6 31.8-17.4 53.39-17.4 48 0 59.41 27 59.41 90.6v44.4h-43.21c-61.2 0-91.79 32.4-91.79 89.4 0 54.6 19.79 89.4 69.59 89.4 30 0 54.61-12.6 65.41-43.2v33Zm0-70.8c-2.41 50.4-35.41 65.4-63.6 65.4-38.4 0-54-25.8-54-73.8 0-45.6 20.39-74.4 75.6-74.4h42v82.8Zm124.2 81c7.2 0 15-1.2 22.2-4.2 3-1.2 5.39-4.2 5.39-7.8 0-4.2-3-7.2-7.2-7.2-2.39 0-8.39 3.6-18 3.6-16.19 0-24-7.2-24-38.4v-399c0-4.2-4.19-8.4-9-8.4-4.19 0-8.39 4.2-8.39 8.4v400.8c0 45 15 52.2 39 52.2Zm65.39-401.4c0 4.8 4.2 9.6 9 9.6 5.41 0 9.61-4.8 9.61-9.6v-46.2c0-4.8-4.2-9.6-9.61-9.6-4.8 0-9 4.8-9 9.6v46.2Zm.61 391.2c0 4.2 4.2 8.4 8.39 8.4 4.81 0 9-4.2 9-8.4v-310.2c0-4.8-4.19-9-9-9-4.19 0-8.39 4.2-8.39 9v310.2Zm87 0c0 4.2 4.2 8.4 8.39 8.4 4.81 0 9-4.2 9-8.4v-216.6c0-55.8 22.81-87.6 59.41-87.6 37.79 0 54.59 18.6 54.59 71.4v232.8c0 4.2 3.61 8.4 8.41 8.4 4.79 0 9-4.2 9-8.4v-234c0-61.2-21.6-86.4-67.8-86.4-29.41 0-52.2 16.2-63.61 46.8v-36.6c0-4.8-4.19-9-9-9-4.19 0-8.39 4.2-8.39 9v310.2Zm241.2-442.2c0-4.8-4.2-9-9-9-4.81 0-9 4.2-9 9v441.6c0 4.8 4.19 9 9 9 4.8 0 9-4.2 9-9v-219h58.8l97.2 223.2c1.19 3 4.19 4.8 7.8 4.8 5.39 0 9.59-3.6 9.59-7.8 0-1.2 0-2.4-.59-4.2l-99-226.2 93.59-208.2c1.21-1.8 1.8-4.2 1.8-6 0-4.2-4.19-7.2-9-7.2-3.59 0-6.59 1.2-7.8 5.4l-94.2 209.4h-58.19v-205.8Zm313.8 427.2c0 4.2 3 7.2 7.79 9.6 23.4 13.2 45.61 15.6 62.4 15.6 70.81 0 105.61-45.6 105.61-126 0-76.8-31.21-102-78.61-116.4l-18-6c-38.4-11.4-63-33-63-94.8 0-49.2 16.21-102.6 85.21-102.6 13.19 0 28.79 2.4 43.79 10.2 4.81 2.4 8.4 4.8 12.61 7.8 5.39 1.8 10.79-1.8 10.79-7.2 0-3.6-1.79-5.4-4.79-7.8-19.8-15.6-44.4-19.8-63-19.8-69.61 0-103.21 49.2-103.21 120.6 0 71.4 33.6 96.6 79.21 111l18 6c39.6 11.4 63.6 34.8 63.6 99.6s-23.4 108.6-88.81 108.6c-24 0-37.8-6-48.59-11.4-3.6-1.8-7.21-3.6-10.81-4.8-6-1.2-10.19 3-10.19 7.8Zm300.59 25.2c10.81 0 19.21-1.2 26.41-3 3.59-1.2 6.59-3.6 6.59-8.4 0-4.2-3-7.8-7.79-7.8-4.21 0-9.61 3-23.4 3-27 0-39.6-9.6-39.6-57.6v-236.4h54c4.2 0 8.39-3 8.39-7.8 0-4.2-4.19-7.8-8.39-7.8h-54v-90.6c0-4.8-3.61-9.6-9-9.6-4.8 0-8.4 4.8-8.4 9.6v90.6h-34.81c-4.19 0-8.4 3.6-8.4 7.8 0 4.8 4.21 7.8 8.4 7.8h34.81v237c0 54.6 16.79 73.2 55.19 73.2Zm88.81-320.4c0-4.8-4.21-9-9-9-4.21 0-8.4 4.2-8.4 9v233.4c0 63.6 18.59 87 64.8 87 30.6 0 54-16.2 66.6-48v37.8c0 4.2 3.6 8.4 8.4 8.4 4.79 0 9-4.2 9-8.4v-310.2c0-4.8-4.21-9-9-9-4.8 0-8.4 4.2-8.4 9v219c0 55.8-25.21 85.2-62.4 85.2-36.6 0-51.6-18.6-51.6-71.4v-232.8Zm327 310.2c0 4.2 3.6 8.4 8.4 8.4 4.79 0 9-4.2 9-8.4v-442.8c0-4.2-4.21-8.4-9-8.4-4.8 0-8.4 4.2-8.4 8.4v163.2c-10.21-28.2-28.21-40.8-58.81-40.8-50.4 0-72 30-72 110.4v109.2c0 80.4 19.81 111 70.21 111 30 0 49.79-14.4 60.6-47.4v37.2Zm0-120.6c0 81-18 114.6-58.21 114.6-39.6 0-55.19-23.4-55.19-93.6v-112.2c0-69.6 15.59-93 55.19-93 39 0 58.21 27.6 58.21 105.6v78.6Zm86.4-270.6c0 4.8 4.2 9.6 9 9.6 5.39 0 9.6-4.8 9.6-9.6v-46.2c0-4.8-4.21-9.6-9.6-9.6-4.8 0-9 4.8-9 9.6v46.2Zm.6 391.2c0 4.2 4.19 8.4 8.4 8.4 4.79 0 9-4.2 9-8.4v-310.2c0-4.8-4.21-9-9-9-4.21 0-8.4 4.2-8.4 9v310.2Zm82.19-101.4c0 81.6 21.6 111.6 74.41 111.6 52.8 0 73.19-30 73.19-111.6v-107.4c0-82.2-19.79-111.6-73.19-111.6-52.2 0-74.41 29.4-74.41 111.6v107.4Zm17.41-109.2c0-69.6 16.19-94.2 57-94.2 40.19 0 55.8 24 55.8 94.2v111c0 70.2-15.61 94.2-55.8 94.2-40.81 0-57-24.6-57-94.2v-111Z" style="fill-rule:nonzero" transform="matrix(1.7522 0 0 1.75098 -981.514 185.046)"/></svg>