<svg xmlns="http://www.w3.org/2000/svg" viewBox="0 0 32 32">
  <path d="M29.6327 0C30.9374 0 32 1.033 32 2.3073V29.691C32 30.9652 30.9374 32 29.6327 32H2.3603C1.058 32 0 30.9652 0 29.691V2.3073C0 1.033 1.0581 0 2.3603 0h27.2724ZM27.269 27.2673v-8.375c0-4.1128-.888-7.2748-5.6937-7.2748-2.3092 0-3.8578 1.2661-4.4907 2.4666h-.065v-2.0876H12.47v15.2708h4.7405v-7.553c0-1.992.3769-3.9222 2.8465-3.9222 2.4357 0 2.4662 2.2782 2.4662 4.049v7.4262h4.7458ZM9.4925 11.9965h-4.751v15.2708h4.751V11.9965ZM7.1182 4.4054c-1.5244 0-2.7535 1.233-2.7535 2.7522 0 1.5195 1.2291 2.7526 2.7535 2.7526 1.5183 0 2.751-1.2331 2.751-2.7526 0-1.5191-1.2327-2.7522-2.751-2.7522Z" fill="#132112" fill-rule="evenodd"/>
</svg>
