<svg xmlns="http://www.w3.org/2000/svg" viewBox="0 0 36 34">
  <path d="M13.9418 6.1344c-3.0109.5655-5.1273 2.7408-6.349 6.5259-.611 1.8707-.9164 3.7197-.9164 5.547 0 .2175.0109.4024.0327.5547s.0545.4894.0982 1.0115h7.1345V34H0V20.883C0 14.444 1.2873 9.4842 3.8618 6.0037 6.4364 2.5234 9.7964.5221 13.9418 0v6.1344Zm22.0582 0c-2.4.3915-4.2218 1.7402-5.4655 4.046-1.2436 2.3058-1.8654 4.9597-1.8654 7.9616 0 .261.0109.5221.0327.7831s.0764.5439.1637.8484H36V34H21.9927V20.883c0-5.1773 1.091-9.7998 3.2728-13.8676C27.4473 2.9475 31.0255.609 36 0v6.1344Z" fill="#132112"/>
</svg>
